~*~*~*~*~*~*~*~*~Green Lantern (2011) 720p (Shy_Rage)~*~*~*~*~*~*~*~*~


------------------------------------------------------------------
~*~*~*~*~*~*~*~*~~*~*~*~*~*~*~*~*~~*~*~*~*~*~*~*~*~~*~*~*~*~*~*~*~

IMDB ID: - http://www.imdb.com/title/tt1133985/

IMDB RATINGS: - 6.1/10


PLOT: - 

A test pilot is granted a mystical green ring that bestows him with otherworldly powers, as well as membership into an intergalactic squadron tasked with keeping peace within the universe.

CAST: - 

Ryan Reynolds	 ...	Hal Jordan / Green Lantern

Blake Lively	 ...	Carol Ferris

Peter Sarsgaard	 ...	Hector Hammond

Mark Strong	 ...	Sinestro

Tim Robbins	 ...	Hammond

Jay O. Sanders	 ...	Carl Ferris

Taika Waititi	 ...	Tom Kalmaku

Angela Bassett	 ...	Doctor Waller

~*~*~*~*~*~*~*~*~~*~*~*~*~*~*~*~*~~*~*~*~*~*~*~*~*~~*~*~*~*~*~*~*~
------------------------------------------------------------------


==================================================================
~*~*~*~*~*~*~*~*~~*~*~*~*~*~*~*~*~~*~*~*~*~*~*~*~*~~*~*~*~*~*~*~*~


General
Complete name                    : Green Lantern (2011) 720p (Shy_Rage).mp4
Format                           : MPEG-4
Format profile                   : Base Media
Codec ID                         : isom
File size                        : 800 MiB
Duration                         : 2h 3mn
Overall bit rate                 : 904 Kbps
Encoded date                     : UTC 2011-09-30 02:45:52
Tagged date                      : UTC 2011-09-30 02:45:52


Video
ID                               : 1
Format                           : AVC
Format/Info                      : Advanced Video Codec
Format profile                   : High@L4.1
Format settings, CABAC           : Yes
Format settings, ReFrames        : 4 frames
Codec ID                         : avc1
Codec ID/Info                    : Advanced Video Coding
Duration                         : 2h 3mn
Bit rate                         : 772 Kbps
Maximum bit rate                 : 6 298 Kbps
Width                            : 1 280 pixels
Height                           : 536 pixels
Display aspect ratio             : 2.40:1
Frame rate mode                  : Constant
Frame rate                       : 23.976 fps
Color space                      : YUV
Chroma subsampling               : 4:2:0
Bit depth                        : 8 bits
Scan type                        : Progressive
Bits/(Pixel*Frame)               : 0.047
Stream size                      : 683 MiB (85%)
Title                            : Imported with GPAC 0.4.6-DEV (build 1)
Writing library                  : x264 core 92 r1510 33d382a
Encoded date                     : UTC 2011-09-30 02:45:52
Tagged date                      : UTC 2011-09-30 02:46:56


Audio
ID                               : 2
Format                           : AAC
Format/Info                      : Advanced Audio Codec
Format profile                   : LC
Codec ID                         : 40
Duration                         : 2h 3mn
Bit rate mode                    : Variable
Bit rate                         : 128 Kbps
Maximum bit rate                 : 137 Kbps
Channel(s)                       : 2 channels
Channel positions                : Front: L R
Sampling rate                    : 48.0 KHz
Compression mode                 : Lossy
Stream size                      : 113 MiB (14%)
Encoded date                     : UTC 2011-09-30 02:46:54
Tagged date                      : UTC 2011-09-30 02:46:56


Text
Complete name                    : Green Lantern (2011) 720p (Shy_Rage).srt
Format                           : SubRip
File size                        : 78.3 KiB
Format                           : SubRip
Compression mode                 : Lossless

~*~*~*~*~*~*~*~*~~*~*~*~*~*~*~*~*~~*~*~*~*~*~*~*~*~~*~*~*~*~*~*~*~
==================================================================

Please SEED & RATE My Torrents!!